{
  "accessors": [
    {
      "bufferView": 2,
      "componentType": 5126,
      "count": 5693,
      "max": [
        1.6307404041290283,
        1.242755651473999,
        3.241499662399292
      ],
      "min": [
        -1.6331450939178467,
        -1.268932580947876,
        -1.868053674697876
      ],
      "type": "VEC3"
    },
    {
      "bufferView": 2,
      "byteOffset": 68316,
      "componentType": 5126,
      "count": 5693,
      "max": [
        1.0,
        1.0,
        1.0
      ],
      "min": [
        -1.0,
        -1.0,
        -1.0
      ],
      "type": "VEC3"
    },
    {
      "bufferView": 3,
      "componentType": 5126,
      "count": 5693,
      "max": [
        1.0,
        1.0,
        1.0,
        1.0
      ],
      "min": [
        -1.0,
        -1.0,
        -1.0,
        -1.0
      ],
      "type": "VEC4"
    },
    {
      "bufferView": 1,
      "componentType": 5126,
      "count": 5693,
      "max": [
        0.9998515844345093,
        0.9982010126113892
      ],
      "min": [
        0.0020407005213201046,
        0.0017697374569252133
      ],
      "type": "VEC2"
    },
    {
      "bufferView": 1,
      "byteOffset": 45544,
      "componentType": 5126,
      "count": 5693,
      "max": [
        0.9999280571937561,
        1.015633463859558
      ],
      "min": [
        0.0,
        -0.12873351573944092
      ],
      "type": "VEC2"
    },
    {
      "bufferView": 1,
      "byteOffset": 91088,
      "componentType": 5126,
      "count": 5693,
      "max": [
        0.9999280571937561,
        1.015633463859558
      ],
      "min": [
        0.0,
        -0.12873351573944092
      ],
      "type": "VEC2"
    },
    {
      "bufferView": 0,
      "componentType": 5125,
      "count": 14415,
      "type": "SCALAR"
    },
    {
      "bufferView": 2,
      "byteOffset": 136632,
      "componentType": 5126,
      "count": 16,
      "max": [
        -0.6976799964904785,
        -1.09242582321167,
        -0.9006812572479248
      ],
      "min": [
        -0.837151050567627,
        -1.2318966388702393,
        -1.0353868007659912
      ],
      "type": "VEC3"
    },
    {
      "bufferView": 2,
      "byteOffset": 136824,
      "componentType": 5126,
      "count": 16,
      "max": [
        0.9639763236045837,
        0.9639765620231628,
        -0.26598745584487915
      ],
      "min": [
        -0.9639763236045837,
        -0.9639765620231628,
        -0.26598793268203735
      ],
      "type": "VEC3"
    },
    {
      "bufferView": 1,
      "byteOffset": 136632,
      "componentType": 5126,
      "count": 16,
      "max": [
        0.7954834699630737,
        0.9667348861694336
      ],
      "min": [
        0.003525317879393697,
        0.3252563178539276
      ],
      "type": "VEC2"
    },
    {
      "bufferView": 1,
      "byteOffset": 136760,
      "componentType": 5126,
      "count": 16,
      "max": [
        0.6153189539909363,
        0.28311026096343994
      ],
      "min": [
        0.5483683347702026,
        0.2712819278240204
      ],
      "type": "VEC2"
    },
    {
      "bufferView": 0,
      "byteOffset": 57660,
      "componentType": 5125,
      "count": 24,
      "type": "SCALAR"
    }
  ],
  "asset": {
    "extras": {
      "author": "caz747 (https://sketchfab.com/caz747)",
      "license": "SKETCHFAB Standard (https://sketchfab.com/licenses)",
      "source": "https://sketchfab.com/3d-models/house-5baac3f378394198967081b81680fee2",
      "title": "House"
    },
    "generator": "Sketchfab-15.49.0",
    "version": "2.0"
  },
  "bufferViews": [
    {
      "buffer": 0,
      "byteLength": 57756,
      "name": "floatBufferViews",
      "target": 34963
    },
    {
      "buffer": 0,
      "byteLength": 136888,
      "byteOffset": 57756,
      "byteStride": 8,
      "name": "floatBufferViews",
      "target": 34962
    },
    {
      "buffer": 0,
      "byteLength": 137016,
      "byteOffset": 194644,
      "byteStride": 12,
      "name": "floatBufferViews",
      "target": 34962
    },
    {
      "buffer": 0,
      "byteLength": 91088,
      "byteOffset": 331660,
      "byteStride": 16,
      "name": "floatBufferViews",
      "target": 34962
    }
  ],
  "buffers": [
    {
      "byteLength": 422748,
      "uri": "scene.bin"
    }
  ],
  "extensionsRequired": [
    "KHR_materials_pbrSpecularGlossiness"
  ],
  "extensionsUsed": [
    "KHR_materials_pbrSpecularGlossiness"
  ],
  "images": [
    {
      "uri": "textures/Material.022_diffuse.jpeg"
    },
    {
      "uri": "textures/Material.022_normal.jpeg"
    }
  ],
  "materials": [
    {
      "doubleSided": true,
      "extensions": {
        "KHR_materials_pbrSpecularGlossiness": {
          "diffuseFactor": [
            1.0,
            1.0,
            1.0,
            1.0
          ],
          "diffuseTexture": {
            "index": 0
          },
          "glossinessFactor": 0.0,
          "specularFactor": [
            0.0,
            0.0,
            0.0
          ]
        }
      },
      "name": "Material.022",
      "normalTexture": {
        "index": 1
      }
    },
    {
      "doubleSided": true,
      "extensions": {
        "KHR_materials_pbrSpecularGlossiness": {
          "diffuseFactor": [
            0.8,
            0.8,
            0.8,
            1.0
          ],
          "glossinessFactor": 0.5601338949241352,
          "specularFactor": [
            0.0,
            0.0,
            0.0
          ]
        }
      },
      "name": "Lamp_glass"
    }
  ],
  "meshes": [
    {
      "name": "House 2_Material.022_0",
      "primitives": [
        {
          "attributes": {
            "NORMAL": 1,
            "POSITION": 0,
            "TANGENT": 2,
            "TEXCOORD_0": 3,
            "TEXCOORD_1": 4,
            "TEXCOORD_2": 5
          },
          "indices": 6,
          "material": 0,
          "mode": 4
        }
      ]
    },
    {
      "name": "House 2_Lamp glass_0",
      "primitives": [
        {
          "attributes": {
            "NORMAL": 8,
            "POSITION": 7,
            "TEXCOORD_0": 9,
            "TEXCOORD_1": 10
          },
          "indices": 11,
          "material": 1,
          "mode": 4
        }
      ]
    }
  ],
  "nodes": [
    {
      "children": [
        1
      ],
      "matrix": [
        1.0,
        0.0,
        0.0,
        0.0,
        0.0,
        2.220446049250313e-16,
        -1.0,
        0.0,
        0.0,
        1.0,
        2.220446049250313e-16,
        0.0,
        0.0,
        0.0,
        0.0,
        1.0
      ],
      "name": "Sketchfab_model"
    },
    {
      "children": [
        2
      ],
      "matrix": [
        1.0,
        0.0,
        0.0,
        0.0,
        0.0,
        0.0,
        1.0,
        0.0,
        0.0,
        -1.0,
        0.0,
        0.0,
        0.0,
        0.0,
        0.0,
        1.0
      ],
      "name": "096f9e5ed5be4c5897803de4e2f2a3f7.fbx"
    },
    {
      "children": [
        3
      ],
      "name": "RootNode"
    },
    {
      "children": [
        4,
        5
      ],
      "matrix": [
        100.0,
        0.0,
        0.0,
        0.0,
        0.0,
        -4.371139006309477e-06,
        -99.9999999999999,
        0.0,
        0.0,
        99.9999999999999,
        -4.371139006309477e-06,
        0.0,
        0.12023746967315674,
        86.37301635742188,
        -1.3088524341583252,
        1.0
      ],
      "name": "House 2"
    },
    {
      "mesh": 0,
      "name": "House 2_Material.022_0"
    },
    {
      "mesh": 1,
      "name": "House 2_Lamp glass_0"
    }
  ],
  "samplers": [
    {
      "magFilter": 9729,
      "minFilter": 9987,
      "wrapS": 10497,
      "wrapT": 10497
    }
  ],
  "scene": 0,
  "scenes": [
    {
      "name": "Sketchfab_Scene",
      "nodes": [
        0
      ]
    }
  ],
  "textures": [
    {
      "sampler": 0,
      "source": 0
    },
    {
      "sampler": 0,
      "source": 1
    }
  ]
}
