{
  "accessors": [
    {
      "bufferView": 2,
      "componentType": 5126,
      "count": 1470,
      "max": [
        7.5,
        5.699999809265137,
        18.799999237060547
      ],
      "min": [
        -7.5,
        -5.800000190734863,
        15.0
      ],
      "type": "VEC3"
    },
    {
      "bufferView": 2,
      "byteOffset": 17640,
      "componentType": 5126,
      "count": 1470,
      "max": [
        1.0,
        1.0,
        1.0
      ],
      "min": [
        -1.0,
        -1.0,
        -1.0
      ],
      "type": "VEC3"
    },
    {
      "bufferView": 1,
      "componentType": 5126,
      "count": 1470,
      "max": [
        0.0,
        0.0
      ],
      "min": [
        0.0,
        0.0
      ],
      "type": "VEC2"
    },
    {
      "bufferView": 0,
      "componentType": 5125,
      "count": 4656,
      "type": "SCALAR"
    },
    {
      "bufferView": 2,
      "byteOffset": 35280,
      "componentType": 5126,
      "count": 1066,
      "max": [
        20.733999252319336,
        9.0600004196167,
        29.18000030517578
      ],
      "min": [
        -20.733999252319336,
        -4.736000061035156,
        2.9820001125335693
      ],
      "type": "VEC3"
    },
    {
      "bufferView": 2,
      "byteOffset": 48072,
      "componentType": 5126,
      "count": 1066,
      "max": [
        0.9997038841247559,
        0.999996542930603,
        1.0
      ],
      "min": [
        -0.9992688298225403,
        -0.9999967217445374,
        -1.0
      ],
      "type": "VEC3"
    },
    {
      "bufferView": 1,
      "byteOffset": 11760,
      "componentType": 5126,
      "count": 1066,
      "max": [
        0.9919999837875366,
        0.9890000224113464
      ],
      "min": [
        0.014999999664723873,
        0.008999999612569809
      ],
      "type": "VEC2"
    },
    {
      "bufferView": 0,
      "byteOffset": 18624,
      "componentType": 5125,
      "count": 4380,
      "type": "SCALAR"
    },
    {
      "bufferView": 2,
      "byteOffset": 60864,
      "componentType": 5126,
      "count": 770,
      "max": [
        5.099999904632568,
        5.099999904632568,
        40.400001525878906
      ],
      "min": [
        -5.099999904632568,
        -5.099999904632568,
        28.81999969482422
      ],
      "type": "VEC3"
    },
    {
      "bufferView": 2,
      "byteOffset": 70104,
      "componentType": 5126,
      "count": 770,
      "max": [
        0.9990761876106262,
        0.9990761876106262,
        1.0
      ],
      "min": [
        -0.9990761876106262,
        -0.9990761876106262,
        -1.0
      ],
      "type": "VEC3"
    },
    {
      "bufferView": 1,
      "byteOffset": 20288,
      "componentType": 5126,
      "count": 770,
      "max": [
        0.9879999756813049,
        0.9819999933242798
      ],
      "min": [
        0.21299999952316284,
        0.014000000432133675
      ],
      "type": "VEC2"
    },
    {
      "bufferView": 0,
      "byteOffset": 36144,
      "componentType": 5125,
      "count": 3024,
      "type": "SCALAR"
    },
    {
      "bufferView": 2,
      "byteOffset": 79344,
      "componentType": 5126,
      "count": 1276,
      "max": [
        7.699999809265137,
        3.9600000381469727,
        34.599998474121094
      ],
      "min": [
        -7.699999809265137,
        -3.9600000381469727,
        16.020000457763672
      ],
      "type": "VEC3"
    },
    {
      "bufferView": 2,
      "byteOffset": 94656,
      "componentType": 5126,
      "count": 1276,
      "max": [
        1.0,
        1.0,
        1.0
      ],
      "min": [
        -1.0,
        -1.0,
        -1.0
      ],
      "type": "VEC3"
    },
    {
      "bufferView": 1,
      "byteOffset": 26448,
      "componentType": 5126,
      "count": 1276,
      "max": [
        0.9810000061988831,
        0.9290000200271606
      ],
      "min": [
        0.017999999225139618,
        0.03200000151991844
      ],
      "type": "VEC2"
    },
    {
      "bufferView": 0,
      "byteOffset": 48240,
      "componentType": 5125,
      "count": 4572,
      "type": "SCALAR"
    },
    {
      "bufferView": 2,
      "byteOffset": 109968,
      "componentType": 5126,
      "count": 2548,
      "max": [
        12.721467971801758,
        3.9600000381469727,
        22.31922721862793
      ],
      "min": [
        -12.721467971801758,
        -8.554441452026367,
        0.019999809563159943
      ],
      "type": "VEC3"
    },
    {
      "bufferView": 2,
      "byteOffset": 140544,
      "componentType": 5126,
      "count": 2548,
      "max": [
        1.0,
        1.0,
        1.0
      ],
      "min": [
        -1.0,
        -1.0,
        -1.0
      ],
      "type": "VEC3"
    },
    {
      "bufferView": 1,
      "byteOffset": 36656,
      "componentType": 5126,
      "count": 2548,
      "max": [
        0.0,
        0.0
      ],
      "min": [
        0.0,
        0.0
      ],
      "type": "VEC2"
    },
    {
      "bufferView": 0,
      "byteOffset": 66528,
      "componentType": 5125,
      "count": 8832,
      "type": "SCALAR"
    },
    {
      "bufferView": 2,
      "byteOffset": 171120,
      "componentType": 5126,
      "count": 1294,
      "max": [
        11.566813468933105,
        2.647404670715332,
        27.669233322143555
      ],
      "min": [
        -11.566813468933105,
        -4.5254950523376465,
        16.262367248535156
      ],
      "type": "VEC3"
    },
    {
      "bufferView": 2,
      "byteOffset": 186648,
      "componentType": 5126,
      "count": 1294,
      "max": [
        0.9906068444252014,
        0.9997326731681824,
        0.9997979998588562
      ],
      "min": [
        -0.9906068444252014,
        -0.9995814561843872,
        -0.9997221827507019
      ],
      "type": "VEC3"
    },
    {
      "bufferView": 1,
      "byteOffset": 57040,
      "componentType": 5126,
      "count": 1294,
      "max": [
        0.0,
        0.0
      ],
      "min": [
        0.0,
        0.0
      ],
      "type": "VEC2"
    },
    {
      "bufferView": 0,
      "byteOffset": 101856,
      "componentType": 5125,
      "count": 5424,
      "type": "SCALAR"
    },
    {
      "bufferView": 2,
      "byteOffset": 202176,
      "componentType": 5126,
      "count": 1742,
      "max": [
        5.986999988555908,
        6.204999923706055,
        47.15999984741211
      ],
      "min": [
        -5.986999988555908,
        -7.933000087738037,
        29.35700035095215
      ],
      "type": "VEC3"
    },
    {
      "bufferView": 2,
      "byteOffset": 223080,
      "componentType": 5126,
      "count": 1742,
      "max": [
        1.0,
        1.0,
        0.9983927607536316
      ],
      "min": [
        -1.0,
        -1.0,
        -1.0
      ],
      "type": "VEC3"
    },
    {
      "bufferView": 1,
      "byteOffset": 67392,
      "componentType": 5126,
      "count": 1742,
      "max": [
        0.0,
        0.0
      ],
      "min": [
        0.0,
        0.0
      ],
      "type": "VEC2"
    },
    {
      "bufferView": 0,
      "byteOffset": 123552,
      "componentType": 5125,
      "count": 7872,
      "type": "SCALAR"
    }
  ],
  "asset": {
    "extras": {
      "author": "Lego Mania (https://sketchfab.com/dankmememe)",
      "license": "CC-BY-4.0 (http://creativecommons.org/licenses/by/4.0/)",
      "source": "https://sketchfab.com/3d-models/lego-batman-3d-model-from-the-lego-batman-fe0de34081854108b3899bbcc4c42b4b",
      "title": "Lego Batman 3D Model ( From The Lego Batman)"
    },
    "generator": "Sketchfab-12.68.0",
    "version": "2.0"
  },
  "bufferViews": [
    {
      "buffer": 0,
      "byteLength": 155040,
      "name": "floatBufferViews",
      "target": 34963
    },
    {
      "buffer": 0,
      "byteLength": 81328,
      "byteOffset": 155040,
      "byteStride": 8,
      "name": "floatBufferViews",
      "target": 34962
    },
    {
      "buffer": 0,
      "byteLength": 243984,
      "byteOffset": 236368,
      "byteStride": 12,
      "name": "floatBufferViews",
      "target": 34962
    }
  ],
  "buffers": [
    {
      "byteLength": 480352,
      "uri": "scene.bin"
    }
  ],
  "images": [
    {
      "uri": "textures/Color_24_metallicRoughness.png"
    },
    {
      "uri": "textures/Color_26_56630_bump_metallicRoughness.png"
    },
    {
      "uri": "textures/Decoration_3626d783_baseColor.png"
    },
    {
      "uri": "textures/Decoration_3814d676_baseColor.png"
    }
  ],
  "materials": [
    {
      "doubleSided": true,
      "name": "Color_24",
      "pbrMetallicRoughness": {
        "baseColorFactor": [
          0.972549,
          0.780392,
          0.0941176,
          1.0
        ],
        "metallicRoughnessTexture": {
          "index": 0
        }
      }
    },
    {
      "doubleSided": true,
      "name": "Color_26",
      "pbrMetallicRoughness": {
        "baseColorFactor": [
          0.0627451,
          0.0627451,
          0.0627451,
          1.0
        ],
        "metallicRoughnessTexture": {
          "index": 0
        },
        "roughnessFactor": 0.0
      }
    },
    {
      "doubleSided": true,
      "name": "Color_26_56630_bump",
      "pbrMetallicRoughness": {
        "baseColorFactor": [
          0.0627451,
          0.0627451,
          0.0627451,
          1.0
        ],
        "metallicRoughnessTexture": {
          "index": 1
        }
      }
    },
    {
      "doubleSided": true,
      "name": "Decoration_3626d783",
      "pbrMetallicRoughness": {
        "baseColorTexture": {
          "index": 2
        },
        "metallicRoughnessTexture": {
          "index": 0
        },
        "roughnessFactor": 0.0
      }
    },
    {
      "doubleSided": true,
      "name": "Decoration_3814d676",
      "pbrMetallicRoughness": {
        "baseColorTexture": {
          "index": 3
        },
        "metallicRoughnessTexture": {
          "index": 0
        }
      }
    }
  ],
  "meshes": [
    {
      "name": "Object_0",
      "primitives": [
        {
          "attributes": {
            "NORMAL": 1,
            "POSITION": 0,
            "TEXCOORD_0": 2
          },
          "indices": 3,
          "material": 0,
          "mode": 4
        }
      ]
    },
    {
      "name": "Object_1",
      "primitives": [
        {
          "attributes": {
            "NORMAL": 5,
            "POSITION": 4,
            "TEXCOORD_0": 6
          },
          "indices": 7,
          "material": 2,
          "mode": 4
        }
      ]
    },
    {
      "name": "Object_2",
      "primitives": [
        {
          "attributes": {
            "NORMAL": 9,
            "POSITION": 8,
            "TEXCOORD_0": 10
          },
          "indices": 11,
          "material": 3,
          "mode": 4
        }
      ]
    },
    {
      "name": "Object_3",
      "primitives": [
        {
          "attributes": {
            "NORMAL": 13,
            "POSITION": 12,
            "TEXCOORD_0": 14
          },
          "indices": 15,
          "material": 4,
          "mode": 4
        }
      ]
    },
    {
      "name": "Object_4",
      "primitives": [
        {
          "attributes": {
            "NORMAL": 17,
            "POSITION": 16,
            "TEXCOORD_0": 18
          },
          "indices": 19,
          "material": 1,
          "mode": 4
        }
      ]
    },
    {
      "name": "Object_5",
      "primitives": [
        {
          "attributes": {
            "NORMAL": 21,
            "POSITION": 20,
            "TEXCOORD_0": 22
          },
          "indices": 23,
          "material": 1,
          "mode": 4
        }
      ]
    },
    {
      "name": "Object_6",
      "primitives": [
        {
          "attributes": {
            "NORMAL": 25,
            "POSITION": 24,
            "TEXCOORD_0": 26
          },
          "indices": 27,
          "material": 1,
          "mode": 4
        }
      ]
    }
  ],
  "nodes": [
    {
      "children": [
        1
      ],
      "matrix": [
        1.0,
        0.0,
        0.0,
        0.0,
        0.0,
        2.220446049250313e-16,
        -1.0,
        0.0,
        0.0,
        1.0,
        2.220446049250313e-16,
        0.0,
        0.0,
        0.0,
        0.0,
        1.0
      ],
      "name": "Sketchfab_model"
    },
    {
      "children": [
        2,
        3,
        4,
        5,
        6,
        7,
        8
      ],
      "name": "Untitled Model.obj.cleaner.materialmerger.gles"
    },
    {
      "mesh": 0,
      "name": "Object_2"
    },
    {
      "mesh": 1,
      "name": "Object_3"
    },
    {
      "mesh": 2,
      "name": "Object_4"
    },
    {
      "mesh": 3,
      "name": "Object_5"
    },
    {
      "mesh": 4,
      "name": "Object_6"
    },
    {
      "mesh": 5,
      "name": "Object_7"
    },
    {
      "mesh": 6,
      "name": "Object_8"
    }
  ],
  "samplers": [
    {
      "magFilter": 9729,
      "minFilter": 9987,
      "wrapS": 10497,
      "wrapT": 10497
    }
  ],
  "scene": 0,
  "scenes": [
    {
      "name": "Sketchfab_Scene",
      "nodes": [
        0
      ]
    }
  ],
  "textures": [
    {
      "sampler": 0,
      "source": 0
    },
    {
      "sampler": 0,
      "source": 1
    },
    {
      "sampler": 0,
      "source": 2
    },
    {
      "sampler": 0,
      "source": 3
    }
  ]
}
